# xmcd
#
# Track frame offsets:
#	150
#	3150
#	17475
#	20775
#	26475
#	31575
#	37125
#	43275
#	47700
#	52500
#	56925
#	60525
#	66600
#	72225
#	75750
#	79650
#	83325
#	91275
#	95550
#	99825
#	104925
#	105900
#	118950
#	143700
#	154575
#	158100
#	164850
#	167850
#	173100
#	176475
#	179400
#	185925
#	189000
#	192375
#	197100
#	202800
#	208725
#	215625
#	219525
#	220275
#	221025
#	232275
#
# Disc length: 3438 seconds
#
# Revision: 1
# Processed by: cddbd v1.5.1PL0 Copyright (c) Steve Scherf et al.
# Submitted via: CDex 1.50Beta5
#
DISCID=5d0d6c2a
DTITLE=菅野よう子 - 信長の野望・武将風雲録
DYEAR=1900
DGENRE=Game
TTITLE0=オープニングA
TTITLE1=オープニングB
TTITLE2=初期設定
TTITLE3=メイン・織田
TTITLE4=野戦・織田
TTITLE5=取り引きコマンド
TTITLE6=メイン・武田
TTITLE7=野戦・武田
TTITLE8=一向一揆
TTITLE9=メイン・上杉
TTITLE10=野戦・上杉
TTITLE11=機能コマンド
TTITLE12=メイン・今川
TTITLE13=野戦・今川
TTITLE14=メイン・毛利
TTITLE15=野戦・毛利
TTITLE16=茶会コマンド
TTITLE17=メイン・その他
TTITLE18=野戦・その他
TTITLE19=籠城戦
TTITLE20=戦争勝利
TTITLE21=エンディング
TTITLE22=ファミコンヴァージョン・メドレー
TTITLE23=オープニング
TTITLE24=初期設定
TTITLE25=ユーザー君主メインテーマ
TTITLE26=ユーザー君主戦闘テーマ
TTITLE27=呉メインテーマ
TTITLE28=呉戦闘テーマ
TTITLE29=外交の使者
TTITLE30=蜀メインテーマ
TTITLE31=蜀戦闘テーマ
TTITLE32=婚姻
TTITLE33=その他君主メインテーマ
TTITLE34=その他君主戦闘テーマ
TTITLE35=後継者選択
TTITLE36=魏メインテーマ
TTITLE37=魏戦闘テーマ
TTITLE38=戦争勝利
TTITLE39=戦争敗退
TTITLE40=エンディング
TTITLE41=ファミコンヴァージョン・メドレー
EXTD=
EXTT0=
EXTT1=
EXTT2=
EXTT3=
EXTT4=
EXTT5=
EXTT6=
EXTT7=
EXTT8=
EXTT9=
EXTT10=
EXTT11=
EXTT12=
EXTT13=
EXTT14=
EXTT15=
EXTT16=
EXTT17=
EXTT18=
EXTT19=
EXTT20=
EXTT21=
EXTT22=
EXTT23=
EXTT24=
EXTT25=
EXTT26=
EXTT27=
EXTT28=
EXTT29=
EXTT30=
EXTT31=
EXTT32=
EXTT33=
EXTT34=
EXTT35=
EXTT36=
EXTT37=
EXTT38=
EXTT39=
EXTT40=
EXTT41=
PLAYORDER=
